<?xml version="1.0" encoding="UTF-8"?>
<svg id="Calque_1" xmlns="http://www.w3.org/2000/svg" version="1.1" viewBox="0 0 64 64">
  <!-- Generator: Adobe Illustrator 30.0.0, SVG Export Plug-In . SVG Version: 2.1.1 Build 123)  -->
  <defs>
    <style>
      .st0, .st1 {
        fill: none;
      }

      .st2 {
        fill: #959ca3;
      }

      .st1 {
        stroke: #8c9196;
        stroke-miterlimit: 10;
        stroke-width: .52px;
      }

      .st3 {
        fill: #adb4bc;
      }

      .st4 {
        fill: #fff;
      }
    </style>
  </defs>
  <g>
    <rect class="st1" x=".42" y=".34" width="63.3" height="63.3" rx="3.97" ry="3.97"/>
    <rect class="st2" x=".42" y=".36" width="63.3" height="63.3" rx="3.97" ry="3.97"/>
    <path class="st3" d="M63.52,3.66s-1.31-2.57-3.46-2.56c-1.35.01-55.92-.04-55.92-.04,0,0-3.04.32-3.86,2.66C.85,1.39,2.77.38,4.25.36s55.61.03,55.61.03c0,0,3.17.17,3.66,3.28Z"/>
  </g>
  <rect class="st0" x="17.24" y="47.22" width="29.3" height="2.05"/>
  <polygon class="st4" points="49.48 21.02 49.5 21.02 49.5 21.02 38.51 11.82 38.5 11.82 38.5 21.02 38.5 21.02 46.55 21.02 46.55 22.92 49.48 22.92 49.48 21.02"/>
  <path class="st4" d="M17.24,14.77h21.26v-2.93h-22.01c-1.2,0-2.18.94-2.18,2.1v8.98h2.93v-8.14Z"/>
  <path class="st4" d="M46.55,49.27h-29.3v-2.05h-2.93v2.89c0,1.16.98,2.1,2.18,2.1h30.81c1.2,0,2.18-.94,2.18-2.1v-2.89h-2.93v2.05Z"/>
  <polygon class="st3" points="49.48 22.92 46.55 22.92 17.24 22.92 14.31 22.92 8.42 22.92 8.42 47.22 14.31 47.22 17.24 47.22 46.55 47.22 49.48 47.22 55.72 47.22 55.72 22.92 49.48 22.92"/>
  <path class="st4" d="M11.06,38.16h2.7v2.43s.1.03.15.05c.38.16.79.3,1.24.4.45.11.93.16,1.44.16.92,0,1.63-.18,2.13-.55.51-.37.76-.86.76-1.48,0-.56-.21-1.01-.63-1.35-.42-.34-.93-.65-1.55-.91-.61-.26-1.28-.52-2.01-.79-.73-.26-1.4-.59-2.01-.99-.61-.4-1.13-.9-1.55-1.51-.42-.61-.63-1.39-.63-2.36,0-.74.14-1.41.43-2.02.29-.61.69-1.14,1.2-1.58s1.13-.78,1.85-1.03c.72-.25,1.52-.37,2.4-.37,1,0,1.98.09,2.94.27.97.18,1.73.43,2.31.74v4.98h-2.7v-2.72s-.1,0-.15-.02c-.36-.1-.75-.18-1.17-.23-.42-.06-.83-.09-1.24-.09-.78,0-1.4.16-1.85.47-.45.31-.67.73-.67,1.25s.21.98.63,1.33c.42.34.93.65,1.55.93.61.28,1.28.56,2.01.83.73.28,1.4.62,2.01,1.02.61.4,1.13.9,1.55,1.51.42.61.63,1.37.63,2.28s-.16,1.66-.49,2.32c-.33.66-.78,1.22-1.37,1.67-.59.45-1.28.79-2.09,1.01-.8.22-1.67.33-2.6.33-.62,0-1.2-.05-1.73-.15-.53-.1-1.02-.22-1.47-.37-.45-.15-.85-.3-1.19-.47-.34-.16-.62-.3-.83-.42v-4.56Z"/>
  <path class="st4" d="M31.69,39.2h.12l3.39-12.59h3.48l-5.15,17.18h-3.83l-5.3-17.18h3.75l3.53,12.59Z"/>
  <path class="st4" d="M46.83,34.83h5.86v7.75c-.56.51-1.28.89-2.17,1.15-.89.26-1.8.39-2.74.39-1.1,0-2.12-.19-3.08-.56-.96-.38-1.79-.94-2.49-1.71s-1.26-1.7-1.67-2.82c-.41-1.12-.61-2.43-.61-3.94,0-1.59.25-2.94.74-4.05.49-1.11,1.12-2.02,1.9-2.74.78-.71,1.65-1.23,2.61-1.56.97-.33,1.92-.49,2.87-.49s1.8.08,2.45.23c.65.16,1.25.36,1.79.6v5.08h-2.7v-2.72c-.13-.03-.26-.07-.39-.1-.33-.07-.69-.1-1.08-.1-.67,0-1.29.11-1.87.34-.57.23-1.07.58-1.48,1.07-.42.48-.74,1.1-.97,1.85-.23.75-.34,1.65-.34,2.7,0,.93.11,1.77.34,2.5.23.74.55,1.36.96,1.86.41.51.9.89,1.46,1.15.56.26,1.17.39,1.83.39.43,0,.81-.05,1.17-.15.35-.1.59-.2.72-.29v-3.41h-3.12v-2.45Z"/>
</svg>